<svg xmlns="http://www.w3.org/2000/svg" width="1024" height="1024" aria-label="Toki router glyph logo" role="img" viewBox="0 0 1024 1024"><defs><style>.bg{fill:#f4f1ea}.mark{fill:none;stroke:#24262b;stroke-width:74;stroke-linecap:round;stroke-linejoin:round}.mark-fill{fill:#24262b}.cutout{fill:#f4f1ea}.sage{fill:#8ea99b}.amber{fill:#c99a52}</style></defs><rect width="1024" height="1024" class="bg" rx="232"/><g transform="translate(0 6)"><path d="M268 245H704L682 282L704 319H268C248 319 232 303 232 282C232 261 248 245 268 245Z" class="mark-fill"/><path d="M520 600L636 484" class="mark"/><path d="M465 354H539V626C539 664 558 671 600 671H704L684 708L704 745H566C502 745 465 708 465 636Z" class="mark-fill"/><circle cx="502" cy="282" r="96" class="mark-fill"/><circle cx="502" cy="282" r="48" class="cutout"/><circle cx="746" cy="282" r="39" class="sage"/><circle cx="636" cy="484" r="39" class="mark-fill"/><circle cx="744" cy="708" r="38" class="amber"/></g></svg>