<svg xmlns="http://www.w3.org/2000/svg" viewBox="0 0 256 256" width="256" height="256" role="img" aria-label="/toki wallet logo">
  <defs>
    <linearGradient id="bg" x1="44" y1="18" x2="214" y2="238" gradientUnits="userSpaceOnUse">
      <stop offset="0" stop-color="#27293d"/>
      <stop offset=".52" stop-color="#171924"/>
      <stop offset="1" stop-color="#090a0f"/>
    </linearGradient>
    <linearGradient id="card" x1="74" y1="33" x2="169" y2="146" gradientUnits="userSpaceOnUse">
      <stop offset="0" stop-color="#b1a7ff"/>
      <stop offset=".48" stop-color="#7a9dff"/>
      <stop offset="1" stop-color="#3941ff"/>
    </linearGradient>
    <linearGradient id="wallet" x1="51" y1="95" x2="215" y2="207" gradientUnits="userSpaceOnUse">
      <stop offset="0" stop-color="#30333d"/>
      <stop offset=".58" stop-color="#1f222a"/>
      <stop offset="1" stop-color="#13151c"/>
    </linearGradient>
    <linearGradient id="coin" x1="170" y1="52" x2="219" y2="111" gradientUnits="userSpaceOnUse">
      <stop offset="0" stop-color="#ffe08a"/>
      <stop offset="1" stop-color="#f59e0b"/>
    </linearGradient>
    <filter id="shadow" x="-20%" y="-20%" width="140%" height="150%">
      <feDropShadow dx="0" dy="10" stdDeviation="12" flood-color="#000" flood-opacity=".42"/>
    </filter>
  </defs>
  <rect width="256" height="256" rx="58" fill="url(#bg)"/>
  <g filter="url(#shadow)">
    <rect x="76" y="37" width="104" height="82" rx="18" transform="rotate(-10 128 78)" fill="url(#card)"/>
    <path d="M107 80l13 13-13 13" fill="none" stroke="#111827" stroke-width="10" stroke-linecap="round" stroke-linejoin="round"/>
    <path d="M136 109h27" fill="none" stroke="#111827" stroke-width="10" stroke-linecap="round"/>
    <circle cx="192" cy="75" r="24" fill="url(#coin)" stroke="#ffd166" stroke-width="4"/>
    <path d="M184 75h16M192 67v16" stroke="#7c3f00" stroke-width="5" stroke-linecap="round"/>
    <rect x="42" y="99" width="174" height="99" rx="28" fill="url(#wallet)" stroke="#4b5563" stroke-width="5"/>
    <path d="M46 128h132c20 0 36 16 36 36v7" fill="none" stroke="#111318" stroke-width="16" stroke-linecap="round" opacity=".45"/>
    <rect x="157" y="133" width="68" height="42" rx="18" fill="#252932" stroke="#596170" stroke-width="4"/>
    <circle cx="178" cy="154" r="8" fill="#8b93ff"/>
    <rect x="67" y="125" width="79" height="48" rx="14" fill="#111827" stroke="#374151" stroke-width="4"/>
    <text x="80" y="157" fill="#dbeafe" font-family="ui-monospace, SFMono-Regular, Menlo, monospace" font-size="25" font-weight="700">&gt;_</text>
    <path d="M87 193c18 11 64 13 95 0" fill="none" stroke="#3b82f6" stroke-width="5" stroke-linecap="round" opacity=".65"/>
  </g>
  <g transform="rotate(7 190 188)">
    <rect x="166" y="175" width="48" height="28" rx="8" fill="#f8fafc" opacity=".94"/>
    <text x="174" y="194" fill="#111827" font-family="ui-monospace, SFMono-Regular, Menlo, monospace" font-size="12" font-weight="800">12%</text>
  </g>
</svg>
