<svg xmlns="http://www.w3.org/2000/svg" viewBox="0 0 1024 1024" width="1024" height="1024" role="img" aria-label="Toki router glyph logo dark mode">
  <defs>
    <style>
      .bg { fill: #181a1f; }
      .mark { fill: none; stroke: #f4f1ea; stroke-width: 74; stroke-linecap: round; stroke-linejoin: round; }
      .mark-fill { fill: #f4f1ea; }
      .cutout { fill: #181a1f; }
      .sage { fill: #9bb5a7; }
      .amber { fill: #d3a45c; }
    </style>
  </defs>
  <rect class="bg" width="1024" height="1024" rx="232"/>
  <g transform="translate(0 6)">
    <path class="mark-fill" d="M268 245H704L682 282L704 319H268C248 319 232 303 232 282C232 261 248 245 268 245Z"/>
    <path class="mark" d="M520 600L636 484"/>
    <path class="mark-fill" d="M465 354H539V636C539 674 558 690 600 690H704L684 708L704 727H566C502 727 465 690 465 636Z"/>
    <circle class="mark-fill" cx="502" cy="282" r="96"/>
    <circle class="cutout" cx="502" cy="282" r="48"/>
    <circle class="sage" cx="746" cy="282" r="39"/>
    <circle class="mark-fill" cx="636" cy="484" r="39"/>
    <circle class="amber" cx="744" cy="708" r="38"/>
  </g>
</svg>
