<svg xmlns="http://www.w3.org/2000/svg" viewBox="0 0 920 920" role="img" aria-label="Toki macOS menu bar popover preview">
  <defs>
    <linearGradient id="menuBar" x1="0" y1="0" x2="920" y2="0" gradientUnits="userSpaceOnUse">
      <stop offset="0" stop-color="#18272d"/>
      <stop offset="1" stop-color="#20353d"/>
    </linearGradient>
    <linearGradient id="panel" x1="110" y1="82" x2="810" y2="732" gradientUnits="userSpaceOnUse">
      <stop offset="0" stop-color="#242526"/>
      <stop offset="1" stop-color="#18191a"/>
    </linearGradient>
    <linearGradient id="brand" x1="123" y1="111" x2="187" y2="175" gradientUnits="userSpaceOnUse">
      <stop offset="0" stop-color="#a8a3ff"/>
      <stop offset=".55" stop-color="#6f8cff"/>
      <stop offset="1" stop-color="#3f46f5"/>
    </linearGradient>
    <filter id="panelShadow" x="-10%" y="-10%" width="120%" height="125%">
      <feDropShadow dx="0" dy="18" stdDeviation="20" flood-color="#000000" flood-opacity=".52"/>
    </filter>
    <style>
      .ui { font-family: -apple-system, BlinkMacSystemFont, "SF Pro Text", "Segoe UI", sans-serif; }
      .mono { font-family: ui-monospace, SFMono-Regular, Menlo, Monaco, Consolas, monospace; }
      .primary { fill: #f4f4f5; }
      .secondary { fill: #a1a1aa; }
      .tertiary { fill: #71717a; }
      .card { fill: #1d1e1f; stroke: #303134; stroke-width: 2; }
      .track { fill: #353638; }
      .green { fill: #35e46b; }
      .orange { fill: #ff9f2f; }
      .red { fill: #ff7478; }
    </style>
  </defs>

  <rect width="920" height="920" fill="#111213"/>
  <rect width="920" height="70" fill="url(#menuBar)"/>

  <g class="ui" transform="translate(286 20)">
    <g transform="translate(0 0)">
      <path d="M18 0l2.4 12.4L31.8 7l-8.8 9.1 12.2 3.1-12.5 1.3 6.8 10.7-10.2-7.5-5.1 11.6.2-12.8L2.7 27.1l10-8L0 15.6l12.5-1.1L7.2 2.8l9.1 8.7z" fill="#f07a3d"/>
      <text x="42" y="25" fill="#e5e7eb" font-size="27" font-weight="700">94%</text>
    </g>
    <g transform="translate(126 -2)">
      <path d="M31.2 18.5c6.7 1.2 10.5 6.4 9.4 13-1.3 7.5-7.9 11.1-17 9.5L11.5 38.9C3.9 37.6.1 32.1 1.4 24.6 2.6 17.5 7.5 14 14 14.6 15.8 8.2 20.5 5.1 26.6 6.2c6.4 1.1 9 5.5 4.6 12.3z" fill="#7277ff"/>
      <path d="M12 24l7 7-7 7M23 36h11" fill="none" stroke="#0b1020" stroke-width="4" stroke-linecap="round" stroke-linejoin="round"/>
      <text x="52" y="27" fill="#e5e7eb" font-size="27" font-weight="700">19%</text>
    </g>
    <g transform="translate(286 -1)" fill="none" stroke="#dbeafe" stroke-width="3" stroke-linejoin="round">
      <rect x="0" y="0" width="36" height="26" rx="4"/>
      <path d="M7 7h22M7 14h14M14 33h8M9 34h18"/>
    </g>
    <text x="380" y="27" fill="#e5e7eb" font-size="31">Bluetooth</text>
    <rect x="490" y="-2" width="56" height="36" rx="10" fill="#e7eef4"/>
    <text x="508" y="25" fill="#24323a" font-size="28" font-weight="800">A</text>
  </g>

  <g filter="url(#panelShadow)">
    <path d="M398 75c10 0 16-18 28-18s18 18 28 18h363c34 0 61 27 61 61v725c0 34-27 61-61 61H103c-34 0-61-27-61-61V136c0-34 27-61 61-61z" fill="url(#panel)" stroke="#55575a" stroke-width="2.2"/>

    <g class="ui" transform="translate(72 105)">
      <rect x="0" y="0" width="92" height="92" rx="18" fill="#1b1c1d" stroke="#323335" stroke-width="2"/>
      <g transform="translate(17 20)">
        <rect x="10" y="7" width="48" height="36" rx="7" fill="url(#brand)" transform="rotate(-7 34 25)"/>
        <rect x="6" y="24" width="60" height="32" rx="7" fill="#263047" stroke="#6c7df6" stroke-opacity=".45"/>
        <rect x="13" y="30" width="24" height="8" rx="3" fill="#536074"/>
        <rect x="43" y="30" width="13" height="8" rx="3" fill="#536074"/>
        <path d="M15 45h16M43 45h13" stroke="#8791a4" stroke-width="3" stroke-linecap="round"/>
        <circle cx="57" cy="8" r="9" fill="#f6c35b"/>
        <path d="M57 3v10M52 8h10" stroke="#172033" stroke-width="2.3" stroke-linecap="round"/>
      </g>
    </g>

    <text x="197" y="162" class="mono primary" font-size="47" font-weight="700">/toki</text>
    <rect x="335" y="126" width="68" height="36" rx="18" fill="#3b3c3f"/>
    <text x="351" y="151" class="ui secondary" font-size="21" font-weight="800">v2.0</text>

    <g class="ui" transform="translate(666 126)">
      <rect x="0" y="0" width="61" height="61" rx="17" fill="#303235"/>
      <path d="M40 19a15 15 0 1 1-10-4" fill="none" stroke="#f4f4f5" stroke-width="4" stroke-linecap="round"/>
      <path d="M35 10l7 8-10 5" fill="none" stroke="#f4f4f5" stroke-width="4" stroke-linecap="round" stroke-linejoin="round"/>
      <rect x="76" y="0" width="61" height="61" rx="17" fill="#303235"/>
      <path d="M106 14l4 7 8-1 2 8 7 4-4 7 4 7-7 4-2 8-8-1-4 7-6-7-8 1-2-8-7-4 4-7-4-7 7-4 2-8 8 1z" fill="none" stroke="#f4f4f5" stroke-width="3"/>
      <circle cx="106" cy="37" r="8" fill="none" stroke="#f4f4f5" stroke-width="3"/>
      <rect x="152" y="0" width="61" height="61" rx="17" fill="#35262a" stroke="#d04750" stroke-width="2.2"/>
      <path d="M182 16v21M169 26a20 20 0 1 0 26 0" fill="none" stroke="#ff565f" stroke-width="4" stroke-linecap="round"/>
    </g>

    <g class="ui">
      <rect x="72" y="228" width="412" height="108" rx="16" class="card"/>
      <g transform="translate(97 265)" fill="none" stroke="#a1a1aa" stroke-width="2.4" stroke-linecap="round">
        <circle cx="11" cy="9" r="5"/>
        <circle cx="28" cy="9" r="5"/>
        <path d="M1 32c1-9 7-14 14-14s13 5 14 14M18 32c1-7 6-11 12-11s11 4 12 11"/>
      </g>
      <text x="145" y="268" class="secondary" font-size="25" font-weight="800">Accounts</text>
      <text x="145" y="306" class="primary" font-size="34" font-weight="800">3</text>

      <rect x="504" y="228" width="371" height="108" rx="16" class="card"/>
      <circle cx="533" cy="281" r="12" fill="none" stroke="#a1a1aa" stroke-width="2.5"/>
      <path d="M533 270v7M533 285v6M523 281h6M537 281h6M527 275l4 4M539 275l-4 4" stroke="#a1a1aa" stroke-width="2.2" stroke-linecap="round"/>
      <text x="575" y="268" class="secondary" font-size="25" font-weight="800">Lowest</text>
      <text x="575" y="306" class="primary" font-size="34" font-weight="800">19%</text>
    </g>

    <g class="ui">
      <rect x="72" y="362" width="803" height="174" rx="16" class="card"/>
      <path d="M113 411l12 12-12 12" fill="none" stroke="#a1a1aa" stroke-width="4" stroke-linecap="round" stroke-linejoin="round"/>
      <circle cx="182" cy="423" r="32" fill="#1f3f75" stroke="#3b82f6" stroke-width="2.4"/>
      <path d="M180 393l3.4 24 20-13.4-16.5 17.8 24.1 4.2-24.3 3 13.9 20.1-19.1-15.3-8.8 22.9.9-24.8-22.1 11.3 18.6-16.7-24.5-4.8 24.3-2.4-11.1-22 17.5 16.6z" fill="#f07a3d"/>
      <text x="236" y="418" class="primary" font-size="33" font-weight="800">Work</text>
      <text x="343" y="417" class="secondary" font-size="22">/</text>
      <text x="236" y="455" class="secondary" font-size="26" font-weight="800">Claude Code</text>
      <text x="236" y="486" class="tertiary" font-size="21" font-weight="700">email hidden</text>
      <text x="625" y="417" class="secondary" font-size="24" font-weight="800">current</text>
      <text x="737" y="417" class="primary" font-size="27" font-weight="800">94%</text>
      <text x="789" y="417" class="secondary" font-size="27" font-weight="400">left</text>
      <text x="625" y="457" class="secondary" font-size="24" font-weight="800">weekly</text>
      <text x="737" y="457" class="primary" font-size="27" font-weight="800">99%</text>
      <text x="789" y="457" class="secondary" font-size="27" font-weight="400">left</text>
      <rect x="96" y="500" width="752" height="12" rx="6" class="track"/>
      <rect x="96" y="500" width="44" height="12" rx="6" class="green"/>
    </g>

    <g class="ui">
      <rect x="72" y="558" width="803" height="174" rx="16" class="card"/>
      <path d="M113 607l12 12-12 12" fill="none" stroke="#a1a1aa" stroke-width="4" stroke-linecap="round" stroke-linejoin="round"/>
      <path d="M202 601c8.5 1.6 13.3 8.2 11.8 16.6-1.7 9.4-10 13.9-21.5 12l-15.2-2.6c-9.5-1.6-14.3-8.6-12.6-18 1.4-8.9 7.5-13.3 15.7-12.4 2.3-8.1 8.2-12 15.9-10.6 8 1.4 11.2 6.9 5.9 15z" fill="#7277ff"/>
      <path d="M176 608l9 9-9 9M190 626h14" fill="none" stroke="#0b1020" stroke-width="4" stroke-linecap="round" stroke-linejoin="round"/>
      <text x="236" y="614" class="primary" font-size="33" font-weight="800">Work Team</text>
      <text x="421" y="613" class="secondary" font-size="22">/</text>
      <text x="236" y="651" class="secondary" font-size="26" font-weight="800">Codex</text>
      <text x="236" y="682" class="tertiary" font-size="21" font-weight="700">email hidden</text>
      <text x="625" y="613" class="secondary" font-size="24" font-weight="800">current</text>
      <text x="737" y="613" class="red" font-size="27" font-weight="800">19%</text>
      <text x="789" y="613" class="secondary" font-size="27" font-weight="400">left</text>
      <text x="625" y="653" class="secondary" font-size="24" font-weight="800">weekly</text>
      <text x="737" y="653" class="primary" font-size="27" font-weight="800">87%</text>
      <text x="789" y="653" class="secondary" font-size="27" font-weight="400">left</text>
      <rect x="96" y="696" width="752" height="12" rx="6" class="track"/>
      <rect x="96" y="696" width="610" height="12" rx="6" class="orange"/>
    </g>

    <g class="ui">
      <rect x="72" y="754" width="803" height="148" rx="16" fill="#1d1e1f" stroke="#653033" stroke-width="2"/>
      <path d="M113 806l12 12-12 12" fill="none" stroke="#a1a1aa" stroke-width="4" stroke-linecap="round" stroke-linejoin="round"/>
      <circle cx="182" cy="818" r="32" fill="#3a2a15" stroke="#b66b13" stroke-width="2.4"/>
      <path d="M180 788l3.4 24 20-13.4-16.5 17.8 24.1 4.2-24.3 3 13.9 20.1-19.1-15.3-8.8 22.9.9-24.8-22.1 11.3 18.6-16.7-24.5-4.8 24.3-2.4-11.1-22 17.5 16.6z" fill="#ee8651"/>
      <text x="236" y="811" class="primary" font-size="33" font-weight="800">Personal</text>
      <text x="382" y="810" class="secondary" font-size="22">/</text>
      <text x="236" y="849" class="secondary" font-size="26" font-weight="800">Claude Code</text>
      <text x="236" y="879" class="tertiary" font-size="21" font-weight="700">email hidden</text>
      <rect x="659" y="777" width="184" height="42" rx="21" fill="#3a1e21" stroke="#8c2f35" stroke-width="2"/>
      <text x="684" y="805" fill="#ff7478" font-size="21" font-weight="800">not connected</text>
      <rect x="657" y="828" width="186" height="49" rx="12" fill="#3a3b3d"/>
      <path d="M704 849a14 14 0 0 1 24-8M728 841h-9v-9M728 857a14 14 0 0 1-24 8M704 865h9v9" fill="none" stroke="#f4f4f5" stroke-width="3" stroke-linecap="round" stroke-linejoin="round"/>
      <text x="748" y="860" class="primary" font-size="24" font-weight="800">Switch</text>
    </g>
  </g>
</svg>
